<?xml version="1.0" encoding="UTF-8" standalone="no"?>
<!-- Created with Inkscape (http://www.inkscape.org/) -->

<svg
   xmlns:dc="http://purl.org/dc/elements/1.1/"
   xmlns:cc="http://creativecommons.org/ns#"
   xmlns:rdf="http://www.w3.org/1999/02/22-rdf-syntax-ns#"
   xmlns:svg="http://www.w3.org/2000/svg"
   xmlns="http://www.w3.org/2000/svg"
   xmlns:sodipodi="http://sodipodi.sourceforge.net/DTD/sodipodi-0.dtd"
   xmlns:inkscape="http://www.inkscape.org/namespaces/inkscape"
   width="310.64554mm"
   height="49.551804mm"
   viewBox="0 0 310.64554 49.551804"
   version="1.1"
   id="svg8"
   inkscape:version="0.92.3 (2405546, 2018-03-11)"
   sodipodi:docname="Armadillo_fullname_inverse_logo.svg"
   inkscape:export-filename="/home/jsm56/armadillo/logoD.png"
   inkscape:export-xdpi="96"
   inkscape:export-ydpi="96">
  <defs
     id="defs2" />
  <sodipodi:namedview
     id="base"
     pagecolor="#ffffff"
     bordercolor="#666666"
     borderopacity="1.0"
     inkscape:pageopacity="0.0"
     inkscape:pageshadow="2"
     inkscape:zoom="0.98994949"
     inkscape:cx="470.64796"
     inkscape:cy="27.627764"
     inkscape:document-units="mm"
     inkscape:current-layer="layer1"
     showgrid="false"
     fit-margin-top="0.5"
     fit-margin-left="0.5"
     fit-margin-right="0.5"
     fit-margin-bottom="0.5"
     inkscape:window-width="2233"
     inkscape:window-height="1603"
     inkscape:window-x="1220"
     inkscape:window-y="200"
     inkscape:window-maximized="0" />
  <metadata
     id="metadata5">
    <rdf:RDF>
      <cc:Work
         rdf:about="">
        <dc:format>image/svg+xml</dc:format>
        <dc:type
           rdf:resource="http://purl.org/dc/dcmitype/StillImage" />
        <dc:title />
      </cc:Work>
    </rdf:RDF>
  </metadata>
  <g
     inkscape:label="Layer 1"
     inkscape:groupmode="layer"
     id="layer1"
     transform="translate(55.591919,-120.30597)">
    <rect
       style="opacity:1;fill:#012169;fill-opacity:0.9900189;fill-rule:evenodd;stroke:none;stroke-width:0.35080534;stroke-miterlimit:4;stroke-dasharray:none;stroke-dashoffset:0;stroke-opacity:1;paint-order:fill markers stroke"
       id="rect890"
       width="310.86432"
       height="49.981983"
       x="-55.620499"
       y="120.67889" />
    <flowRoot
       xml:space="preserve"
       id="flowRoot923"
       style="font-style:normal;font-weight:normal;font-size:40px;line-height:1.25;font-family:sans-serif;letter-spacing:0px;word-spacing:0px;fill:#000000;fill-opacity:1;stroke:none"
       transform="scale(0.26458333)"><flowRegion
         id="flowRegion925"><rect
           id="rect927"
           width="348.50262"
           height="501.03568"
           x="-215.16249"
           y="266.92047" /></flowRegion><flowPara
         id="flowPara929" /></flowRoot>    <flowRoot
       xml:space="preserve"
       id="flowRoot931"
       style="font-style:normal;font-weight:normal;font-size:40px;line-height:1.25;font-family:sans-serif;letter-spacing:0px;word-spacing:0px;fill:#feffff;fill-opacity:1;stroke:none;"
       transform="matrix(1.1800527,0,0,1.2989637,128.33435,-432.14217)"><flowRegion
         id="flowRegion933"
         style="fill:#feffff;fill-opacity:1;"><rect
           id="rect935"
           width="260.0766"
           height="45.205482"
           x="-151.52289"
           y="424.50427"
           style="fill:#feffff;fill-opacity:1;" /></flowRegion><flowPara
         id="flowPara937">ARMA    iLLO</flowPara></flowRoot>    <path
       style="fill:#ffffff;fill-opacity:1;stroke:none;stroke-width:0.10613455px;stroke-linecap:butt;stroke-linejoin:miter;stroke-opacity:1"
       d="m 92.329241,123.26747 6.140691,10.24061 -0.0759,24.33513 -6.064871,10.01317 40.482779,-0.082 c 6.16295,0.46612 9.55467,-2.41237 9.85535,-9.02143 l -0.0759,-27.89823 c -0.52159,-3.78649 -2.51932,-6.80949 -8.86981,-7.58103 z"
       id="path827"
       inkscape:connector-curvature="0"
       sodipodi:nodetypes="ccccccccc" />
    <path
       style="fill:#012169;fill-opacity:0.9900189;stroke-width:0.10816918"
       inkscape:connector-curvature="0"
       id="path26-3"
       d="m 115.2945,145.58617 -1.94704,1.12496 c -0.25961,-0.86535 -0.46514,-1.71988 -0.5733,-2.55279 0,0 -0.10198,-0.93535 -0.0974,-1.82805 0.0216,-1.16824 0.11898,-2.18503 0.28124,-3.07202 l 2.33645,1.3413 z"
       sodipodi:nodetypes="ccccccc" />
    <path
       style="fill:#012169;fill-opacity:0.9900189;stroke-width:0.10816918"
       inkscape:connector-curvature="0"
       id="path2"
       d="m 125.18117,133.77409 0.10816,-0.47594 c 0.16226,-0.67065 0.38941,-1.31966 0.68147,-1.91458 -1.54682,-0.59495 -3.22345,-0.93027 -4.97578,-0.93027 h -1.25477 c -1.75234,0 -3.42896,0.32452 -4.97578,0.93027 0.29206,0.59492 0.53003,1.23313 0.68147,1.91458 l 0.10816,0.47594 0.4435,-0.21632 c 1.52518,-0.74637 3.22345,-0.83291 4.35922,-0.83291 1.14659,0 2.84485,0.0866 4.35921,0.83291 z" />
    <path
       style="fill:#012169;fill-opacity:0.9900189;stroke-width:0.10816918"
       inkscape:connector-curvature="0"
       id="path4"
       d="m 114.36425,130.66964 c 1.65499,-0.7031 3.48304,-1.09251 5.38682,-1.09251 h 1.25476 c 1.90378,0 3.72102,0.38941 5.38683,1.09251 0.20552,-0.32451 0.43268,-0.6382 0.68147,-0.91944 0.0325,-0.0325 0.0541,-0.0649 0.0866,-0.0974 -1.87133,-0.76801 -3.91573,-1.18988 -6.05747,-1.18988 h -1.44948 c -2.14175,0 -4.18615,0.42187 -6.05747,1.18988 0.0325,0.0325 0.0541,0.0649 0.0866,0.0974 0.24879,0.28124 0.47594,0.59493 0.68146,0.91944 z" />
    <path
       style="fill:#012169;fill-opacity:0.9900189;stroke-width:0.10816918"
       inkscape:connector-curvature="0"
       id="path6"
       d="m 115.37022,154.46686 c -0.32451,-0.98434 -0.71391,-2.01194 -1.12496,-3.09364 -1.10333,-2.89893 -2.2391,-5.8844 -2.2391,-8.59944 0,-2.24992 0.27043,-4.04553 0.81126,-5.50581 l 0.17308,-0.45431 -0.37859,-0.0649 v -0.0325 l -0.25961,-0.0866 c -0.89781,-0.31369 -1.75235,-0.91942 -2.46626,-1.74152 -0.0433,-0.0541 -0.0866,-0.10817 -0.1298,-0.16225 -2.423,2.50952 -3.91573,5.90604 -3.91573,9.64869 v -0.87618 c 0,-3.54795 1.3413,-6.79302 3.54796,-9.24846 -0.29206,-0.42186 -0.54085,-0.87617 -0.7572,-1.35211 -3.072,2.92057 -4.99741,7.04181 -4.99741,11.59573 v 7.56103 c 0,4.33758 3.54795,7.87472 7.87472,7.87472 h 5.70052 c -0.4435,-0.99516 -0.82209,-2.22829 -1.25476,-3.60204 -0.1839,-0.61656 -0.37859,-1.2223 -0.58412,-1.8605 z" />
    <path
       style="fill:#012169;fill-opacity:0.9900189;stroke-width:0.10816918"
       inkscape:connector-curvature="0"
       id="path8"
       d="m 132.12563,132.88712 c -0.21634,0.47594 -0.46512,0.93025 -0.75719,1.35211 2.20665,2.46625 3.54795,5.71134 3.54795,9.24847 v 0.87616 c 0,-3.73184 -1.49273,-7.13917 -3.91573,-9.64869 -0.0433,0.0541 -0.0866,0.10817 -0.1298,0.16225 -0.71391,0.82208 -1.55764,1.41703 -2.46625,1.74154 l -0.25961,0.0866 v 0.0325 l -0.37859,0.0649 0.17307,0.45432 c 0.55166,1.46028 0.81127,3.25589 0.81127,5.50581 0,2.56361 -1.07088,5.39764 -2.09849,8.1235 -0.42185,1.12497 -0.83289,2.19584 -1.14658,3.21263 -0.19471,0.61656 -0.36779,1.2115 -0.54085,1.78479 -0.46513,1.55764 -0.88698,2.93138 -1.37375,4.03471 h 5.66806 c 4.33758,0 7.87472,-3.54795 7.87472,-7.87471 v -7.56103 c -0.0108,-4.54311 -1.93623,-8.67518 -5.00823,-11.59575 z" />
    <path
       style="fill:#012169;fill-opacity:0.9900189;stroke-width:0.10816918"
       inkscape:connector-curvature="0"
       id="path10"
       d="m 116.48436,155.81899 3.52632,-2.0336 v -4.98658 l -4.35922,-2.52036 -2.1093,1.2115 c 0.73555,2.304 1.75234,4.65127 2.44463,6.7714 0.18388,0.53002 0.34614,1.04923 0.49757,1.55764 z" />
    <path
       style="fill:#012169;fill-opacity:0.9900189;stroke-width:0.10816918"
       inkscape:connector-curvature="0"
       id="path14"
       d="m 112.94723,139.25828 v 0 c 0.0216,-0.11898 0.0541,-0.24879 0.0757,-0.36777 -0.0325,0.11898 -0.0541,0.23796 -0.0757,0.36777 z" />
    <polygon
       style="fill:#012169;fill-opacity:0.9900189"
       id="polygon16"
       points="683.5,688 656.2,672.3 643.2,664.7 602.8,688 602.8,734.1 643.2,757.4 683.5,734.1 "
       transform="matrix(0.10816919,0,0,0.10816919,50.804031,66.179173)" />
    <path
       style="fill:#012169;fill-opacity:0.9900189;stroke-width:0.10816918"
       inkscape:connector-curvature="0"
       id="path18"
       d="m 127.21475,147.36015 c -0.0108,0.0325 -0.0216,0.0757 -0.0325,0.10817 v 0 c 0.0108,-0.0325 0.0216,-0.0649 0.0325,-0.10817 z" />
    <path
       style="fill:#012169;fill-opacity:0.9900189;stroke-width:0.10816918"
       inkscape:connector-curvature="0"
       id="path20"
       d="m 120.74623,133.39551 v 4.05634 l 1.65498,0.95188 2.71506,1.56846 2.53115,-1.46028 c -0.22716,-0.90861 -0.54084,-1.65499 -0.93026,-2.28237 0.25961,0.0108 0.53004,0 0.78964,-0.0433 0.0325,-2.27155 0.87617,-4.58637 2.30401,-6.23055 0.55166,-0.62738 2.09848,-1.56845 2.4987,-2.84485 -1.57926,1.22232 -3.53712,1.68744 -4.73781,3.072 -1.14658,1.33049 -1.77397,3.10446 -1.83888,4.83517 -1.30884,-1.20067 -3.06118,-1.57927 -4.98659,-1.62253 z" />
    <path
       style="fill:#012169;fill-opacity:0.9900189;stroke-width:0.10816918"
       inkscape:connector-curvature="0"
       id="path24"
       d="m 127.42026,146.71113 v 0 c -0.0216,0.0541 -0.0325,0.10818 -0.0541,0.16226 0.0216,-0.0541 0.0325,-0.10817 0.0541,-0.16226 z" />
    <path
       style="fill:#012169;fill-opacity:0.9900189;stroke-width:0.10816918"
       inkscape:connector-curvature="0"
       id="path26"
       d="m 125.47323,145.58617 1.94703,1.12496 c 0.25961,-0.86535 0.46514,-1.71988 0.5733,-2.55279 0,0 0.10198,-0.93535 0.0974,-1.82805 -0.0216,-1.16824 -0.11899,-2.18503 -0.28124,-3.07202 l -2.33645,1.3413 z"
       sodipodi:nodetypes="ccccccc" />
    <path
       style="fill:#012169;fill-opacity:0.9900189;stroke-width:0.10816918"
       inkscape:connector-curvature="0"
       id="path30"
       d="m 120.37845,154.41278 -1.7307,0.99515 -1.93623,1.12497 c -0.0649,-0.20553 -0.1298,-0.41105 -0.19471,-0.61657 1.09251,3.51549 1.83888,6.05747 3.86164,6.05747 1.89296,0 2.72587,-2.2391 3.68857,-5.41928 z" />
    <path
       style="fill:#012169;fill-opacity:0.9900189;stroke-width:0.10816918"
       inkscape:connector-curvature="0"
       id="path32"
       d="m 113.03377,138.84723 c 0.0216,-0.11898 0.0541,-0.22716 0.0866,-0.34613 v 0 c -0.0325,0.11897 -0.0649,0.22715 -0.0866,0.34613 z" />
    <path
       style="fill:#012169;fill-opacity:0.9900189;stroke-width:0.10816918"
       inkscape:connector-curvature="0"
       id="path34"
       d="m 124.28336,155.8298 c 0.18389,-0.61657 0.37859,-1.25476 0.58412,-1.92541 0.6382,-2.03358 1.6009,-4.25104 2.304,-6.43607 l -2.07686,-1.20069 -4.35921,2.52036 v 4.98659 l 1.68744,0.97352 z" />
    <path
       style="fill:#012169;fill-opacity:0.9900189;stroke-width:0.10816918"
       inkscape:connector-curvature="0"
       id="path36"
       d="m 120.01068,133.39551 v 0 c 0,0 0.0108,0 0.0108,0 0,0 -0.0108,0 -0.0108,0 z" />
    <path
       style="fill:#012169;fill-opacity:0.9900189;stroke-width:0.10816918"
       inkscape:connector-curvature="0"
       id="path38"
       d="m 130.0596,130.33432 c -1.31966,1.51437 -2.08767,3.65611 -2.13094,5.75459 0.86536,-0.23795 1.71989,-0.77881 2.45545,-1.63335 1.35211,-1.55763 1.99031,-3.76428 1.81723,-5.7546 -0.76799,0.34615 -1.50354,0.88699 -2.14174,1.63336 z" />
    <path
       style="fill:#012169;fill-opacity:0.9900189;stroke-width:0.10816918"
       inkscape:connector-curvature="0"
       id="path40"
       d="m 108.55556,128.70096 c -0.17307,1.99032 0.46513,4.19697 1.81725,5.7546 0.73554,0.85454 1.59008,1.3954 2.45543,1.63335 -0.0433,-2.10929 -0.81126,-4.24022 -2.13093,-5.75459 -0.6382,-0.74637 -1.37374,-1.28721 -2.14175,-1.63336 z" />
    <path
       style="fill:#012169;fill-opacity:0.9900189;stroke-width:0.10816918"
       inkscape:connector-curvature="0"
       id="path42"
       d="m 110.94609,129.95573 c 1.42784,1.64417 2.26074,3.95899 2.30401,6.23054 0.27042,0.0433 0.53003,0.0541 0.78964,0.0433 -0.37859,0.62739 -0.69228,1.37375 -0.93026,2.28237 l 2.53116,1.46028 4.35922,-2.52034 v -4.05634 c -1.93623,0.0433 -3.67775,0.42186 -4.9866,1.62254 -0.0649,-1.7307 -0.69228,-3.5155 -1.83888,-4.83518 -1.20067,-1.38455 -3.15853,-1.83886 -4.7378,-3.072 0.41104,1.2764 1.96867,2.20666 2.50951,2.84486 z" />
    <g
       id="g1031"
       transform="matrix(-0.10816919,0,0,-0.10816919,172.8297,256.70838)"
       style="fill:#ffffff;fill-opacity:1">
      <path
         d="m 544.6,874 h -7.9 c -9,0 -16.5,6.7 -17.8,15.4 h 17.2 c 0.7,-6.2 3.9,-11.7 8.5,-15.4 z"
         id="path44"
         inkscape:connector-curvature="0"
         style="fill:#012169;fill-opacity:0.9900189" />
      <path
         d="m 563.5,889.4 h 17.2 c 0.7,-6.2 3.8,-11.7 8.5,-15.4 h -7.9 c -9,0 -16.5,6.7 -17.8,15.4 z"
         id="path46"
         inkscape:connector-curvature="0"
         style="fill:#012169;fill-opacity:0.9900189" />
      <path
         d="M 566.9,874 H 559 c -9,0 -16.5,6.7 -17.8,15.4 h 17.2 c 0.7,-6.2 3.9,-11.7 8.5,-15.4 z"
         id="path48"
         inkscape:connector-curvature="0"
         style="fill:#012169;fill-opacity:0.9900189" />
    </g>
    <g
       id="g1026"
       transform="matrix(-0.10816919,0,0,-0.10816919,207.06525,256.70838)"
       style="fill:#ffffff;fill-opacity:1">
      <path
         d="m 749.6,874 h -7.9 c 4.6,3.7 7.8,9.2 8.5,15.4 h 17.2 C 766.1,880.7 758.6,874 749.6,874 Z"
         id="path50"
         inkscape:connector-curvature="0"
         style="fill:#012169;fill-opacity:0.9900189" />
      <path
         d="m 705.1,874 h -7.9 c 4.6,3.7 7.8,9.2 8.5,15.4 h 17.2 C 721.6,880.7 714.1,874 705.1,874 Z"
         id="path52"
         inkscape:connector-curvature="0"
         style="fill:#012169;fill-opacity:0.9900189" />
      <path
         d="m 727.3,874 h -7.9 c 4.6,3.7 7.8,9.2 8.5,15.4 h 17.2 C 743.9,880.7 736.4,874 727.3,874 Z"
         id="path54"
         inkscape:connector-curvature="0"
         style="fill:#012169;fill-opacity:0.9900189" />
    </g>
    <g
       id="g947"
       transform="matrix(0.12754158,0,0,0.11840082,100.98354,124.72395)"
       style="fill:#00539a;fill-opacity:1">
      <rect
         y="154.32698"
         x="145.71344"
         height="29.729946"
         width="5.5055451"
         id="rect838"
         style="fill:#feffff;fill-opacity:1;stroke:none;stroke-width:1.00570691;stroke-miterlimit:10;stroke-dasharray:none;stroke-opacity:1" />
      <rect
         y="154.32698"
         x="153.21898"
         height="29.729946"
         width="5.5055451"
         id="rect838-3"
         style="fill:#feffff;fill-opacity:1;stroke:none;stroke-width:1.00570691;stroke-miterlimit:10;stroke-dasharray:none;stroke-opacity:1" />
      <rect
         transform="rotate(36.02929)"
         y="4.9536033"
         x="214.68564"
         height="29.729946"
         width="5.5055451"
         id="rect838-3-6"
         style="fill:#feffff;fill-opacity:1;stroke:none;stroke-width:1.00570691;stroke-miterlimit:10;stroke-dasharray:none;stroke-opacity:1" />
      <rect
         transform="matrix(-0.80871641,0.58819875,0.58819875,0.80871641,0,0)"
         y="184.02362"
         x="-31.518333"
         height="29.729946"
         width="5.5055451"
         id="rect838-3-6-7"
         style="fill:#feffff;fill-opacity:1;stroke:none;stroke-width:1.00570691;stroke-miterlimit:10;stroke-dasharray:none;stroke-opacity:1" />
      <rect
         transform="rotate(36.784009)"
         y="1.4431438"
         x="222.27867"
         height="24.774956"
         width="5.5055451"
         id="rect838-3-3"
         style="fill:#feffff;fill-opacity:1;stroke:none;stroke-width:0.91808057;stroke-miterlimit:10;stroke-dasharray:none;stroke-opacity:1" />
      <rect
         transform="matrix(-0.80089853,0.59880009,0.59880009,0.80089853,0,0)"
         y="183.95518"
         x="-21.426546"
         height="24.774956"
         width="5.5055451"
         id="rect838-3-3-5"
         style="fill:#feffff;fill-opacity:1;stroke:none;stroke-width:0.91808057;stroke-miterlimit:10;stroke-dasharray:none;stroke-opacity:1" />
    </g>
  </g>
</svg>
