<?xml version="1.0" encoding="UTF-8" standalone="no"?>
<!-- Created with Inkscape (http://www.inkscape.org/) -->

<svg
   xmlns:dc="http://purl.org/dc/elements/1.1/"
   xmlns:cc="http://creativecommons.org/ns#"
   xmlns:rdf="http://www.w3.org/1999/02/22-rdf-syntax-ns#"
   xmlns:svg="http://www.w3.org/2000/svg"
   xmlns="http://www.w3.org/2000/svg"
   xmlns:sodipodi="http://sodipodi.sourceforge.net/DTD/sodipodi-0.dtd"
   xmlns:inkscape="http://www.inkscape.org/namespaces/inkscape"
   width="310.64554mm"
   height="49.551804mm"
   viewBox="0 0 310.64554 49.551804"
   version="1.1"
   id="svg8"
   inkscape:version="0.92.3 (2405546, 2018-03-11)"
   sodipodi:docname="logoD.svg"
   inkscape:export-filename="/home/jsm56/armadillo/logoD.png"
   inkscape:export-xdpi="96"
   inkscape:export-ydpi="96">
  <defs
     id="defs2" />
  <sodipodi:namedview
     id="base"
     pagecolor="#ffffff"
     bordercolor="#666666"
     borderopacity="1.0"
     inkscape:pageopacity="0.0"
     inkscape:pageshadow="2"
     inkscape:zoom="0.98994949"
     inkscape:cx="682.21359"
     inkscape:cy="27.627764"
     inkscape:document-units="mm"
     inkscape:current-layer="layer1"
     showgrid="false"
     fit-margin-top="0.5"
     fit-margin-left="0.5"
     fit-margin-right="0.5"
     fit-margin-bottom="0.5"
     inkscape:window-width="2233"
     inkscape:window-height="1603"
     inkscape:window-x="1439"
     inkscape:window-y="214"
     inkscape:window-maximized="0" />
  <metadata
     id="metadata5">
    <rdf:RDF>
      <cc:Work
         rdf:about="">
        <dc:format>image/svg+xml</dc:format>
        <dc:type
           rdf:resource="http://purl.org/dc/dcmitype/StillImage" />
        <dc:title></dc:title>
      </cc:Work>
    </rdf:RDF>
  </metadata>
  <g
     inkscape:label="Layer 1"
     inkscape:groupmode="layer"
     id="layer1"
     transform="translate(55.591919,-120.30597)">
    <flowRoot
       xml:space="preserve"
       id="flowRoot923"
       style="font-style:normal;font-weight:normal;font-size:40px;line-height:1.25;font-family:sans-serif;letter-spacing:0px;word-spacing:0px;fill:#000000;fill-opacity:1;stroke:none"
       transform="scale(0.26458333)"><flowRegion
         id="flowRegion925"><rect
           id="rect927"
           width="348.50262"
           height="501.03568"
           x="-215.16249"
           y="266.92047" /></flowRegion><flowPara
         id="flowPara929" /></flowRoot>    <flowRoot
       xml:space="preserve"
       id="flowRoot931"
       style="font-style:normal;font-weight:normal;font-size:40px;line-height:1.25;font-family:sans-serif;letter-spacing:0px;word-spacing:0px;fill:#012169;fill-opacity:1;stroke:none;"
       transform="matrix(1.1800527,0,0,1.2989637,128.33435,-432.14217)"><flowRegion
         id="flowRegion933"
         style="fill:#012169;fill-opacity:1;"><rect
           id="rect935"
           width="260.0766"
           height="45.205482"
           x="-151.52289"
           y="424.50427"
           style="fill:#012169;fill-opacity:1;" /></flowRegion><flowPara
         id="flowPara937">ARMA    iLLO</flowPara></flowRoot>    <path
       style="fill:#012169;fill-opacity:1;stroke:none;stroke-width:0.10613455px;stroke-linecap:butt;stroke-linejoin:miter;stroke-opacity:1"
       d="m 92.329241,123.26747 6.140691,10.24061 -0.0759,24.33513 -6.064871,10.01317 40.482779,-0.082 c 6.16295,0.46612 9.55467,-2.41237 9.85535,-9.02143 l -0.0759,-27.89823 c -0.52159,-3.78649 -2.51932,-6.80949 -8.86981,-7.58103 z"
       id="path827"
       inkscape:connector-curvature="0"
       sodipodi:nodetypes="ccccccccc" />
    <g
       id="g1714"
       transform="matrix(1.0481177,0,0,1.0481177,-5.5054631,-7.5858465)">
      <path
         sodipodi:nodetypes="ccccccc"
         d="m 115.2542,146.14009 -1.85766,1.07332 c -0.24769,-0.82563 -0.44378,-1.64093 -0.54698,-2.4356 0,0 -0.0973,-0.89241 -0.0929,-1.74413 0.0206,-1.1146 0.11352,-2.08471 0.26833,-2.93098 l 2.22919,1.27972 z"
         id="path26-3"
         inkscape:connector-curvature="0"
         style="fill:#ffffff;fill-opacity:1;stroke-width:0.10320328" />
      <path
         d="m 124.68698,134.87029 0.1032,-0.45409 c 0.15481,-0.63986 0.37153,-1.25908 0.65018,-1.82669 -1.47581,-0.56763 -3.07546,-0.88756 -4.74735,-0.88756 h -1.19716 c -1.67189,0 -3.27154,0.30962 -4.74735,0.88756 0.27865,0.56761 0.5057,1.17652 0.65018,1.82669 l 0.1032,0.45409 0.42314,-0.20639 c 1.45516,-0.71211 3.07546,-0.79467 4.15909,-0.79467 1.09395,0 2.71425,0.0826 4.15909,0.79467 z"
         id="path2"
         inkscape:connector-curvature="0"
         style="fill:#ffffff;fill-opacity:1;stroke-width:0.10320328" />
      <path
         d="m 114.36665,131.90836 c 1.57901,-0.67082 3.32314,-1.04235 5.13952,-1.04235 h 1.19716 c 1.81638,0 3.55019,0.37153 5.13952,1.04235 0.19609,-0.30961 0.41282,-0.6089 0.65019,-0.87723 0.031,-0.031 0.0516,-0.0619 0.0826,-0.0929 -1.78542,-0.73275 -3.73596,-1.13525 -5.77938,-1.13525 h -1.38293 c -2.04343,0 -3.99397,0.4025 -5.77938,1.13525 0.031,0.031 0.0516,0.0619 0.0826,0.0929 0.23737,0.26833 0.45409,0.56762 0.65018,0.87723 z"
         id="path4"
         inkscape:connector-curvature="0"
         style="fill:#ffffff;fill-opacity:1;stroke-width:0.10320328" />
      <path
         d="m 115.32644,154.61308 c -0.30961,-0.93915 -0.68114,-1.91957 -1.07331,-2.95161 -1.05268,-2.76585 -2.13631,-5.61426 -2.13631,-8.20466 0,-2.14662 0.25801,-3.8598 0.77402,-5.25304 l 0.16513,-0.43345 -0.36121,-0.0619 v -0.031 l -0.24769,-0.0826 c -0.85659,-0.29929 -1.6719,-0.87721 -2.35304,-1.66157 -0.0413,-0.0516 -0.0826,-0.1032 -0.12384,-0.1548 -2.31176,2.39431 -3.73596,5.6349 -3.73596,9.20573 v -0.83595 c 0,-3.38507 1.27972,-6.48117 3.38507,-8.82388 -0.27865,-0.40249 -0.51602,-0.83595 -0.72243,-1.29004 -2.93097,2.78649 -4.76799,6.71853 -4.76799,11.06339 v 7.21391 c 0,4.13845 3.38507,7.5132 7.5132,7.5132 h 5.43882 c -0.42314,-0.94947 -0.78435,-2.12599 -1.19716,-3.43667 -0.17545,-0.58826 -0.36121,-1.16619 -0.5573,-1.77509 z"
         id="path6"
         inkscape:connector-curvature="0"
         style="fill:#ffffff;fill-opacity:1;stroke-width:0.10320328" />
      <path
         d="m 131.31263,134.02404 c -0.20641,0.45409 -0.44377,0.88754 -0.72243,1.29003 2.10535,2.35303 3.38507,5.44914 3.38507,8.82389 v 0.83594 c 0,-3.56052 -1.4242,-6.81142 -3.73596,-9.20574 -0.0413,0.0516 -0.0826,0.10321 -0.12384,0.15481 -0.68114,0.78434 -1.48613,1.35197 -2.35303,1.66158 l -0.24769,0.0826 v 0.031 l -0.36121,0.0619 0.16512,0.43346 c 0.52634,1.39324 0.77403,3.10642 0.77403,5.25305 0,2.44592 -1.02172,5.14984 -2.00215,7.75056 -0.40249,1.07332 -0.79466,2.09503 -1.09395,3.06514 -0.18577,0.58826 -0.3509,1.15588 -0.51602,1.70285 -0.44377,1.48613 -0.84626,2.79681 -1.31068,3.84949 h 5.40785 c 4.13845,0 7.5132,-3.38507 7.5132,-7.5132 v -7.21391 c -0.0103,-4.33454 -1.84734,-8.27691 -4.77831,-11.0634 z"
         id="path8"
         inkscape:connector-curvature="0"
         style="fill:#ffffff;fill-opacity:1;stroke-width:0.10320328" />
      <path
         d="m 116.38943,155.90314 3.36443,-1.94024 v -4.75766 l -4.15909,-2.40465 -2.01247,1.15588 c 0.70179,2.19823 1.6719,4.43774 2.3324,6.46054 0.17544,0.50568 0.33025,1.00106 0.47473,1.48613 z"
         id="path10"
         inkscape:connector-curvature="0"
         style="fill:#ffffff;fill-opacity:1;stroke-width:0.10320328" />
      <path
         d="m 113.01469,140.10271 v 0 c 0.0206,-0.11352 0.0516,-0.23737 0.0722,-0.35089 -0.031,0.11352 -0.0516,0.22704 -0.0722,0.35089 z"
         id="path14"
         inkscape:connector-curvature="0"
         style="fill:#ffffff;fill-opacity:1;stroke-width:0.10320328" />
      <polygon
         transform="matrix(0.10320329,0,0,0.10320329,53.7244,70.378565)"
         points="643.2,757.4 683.5,734.1 683.5,688 656.2,672.3 643.2,664.7 602.8,688 602.8,734.1 "
         id="polygon16"
         style="fill:#ffffff;fill-opacity:1" />
      <path
         d="m 126.6272,147.83263 c -0.0103,0.031 -0.0206,0.0722 -0.031,0.1032 v 0 c 0.0103,-0.031 0.0206,-0.0619 0.031,-0.1032 z"
         id="path18"
         inkscape:connector-curvature="0"
         style="fill:#ffffff;fill-opacity:1;stroke-width:0.10320328" />
      <path
         d="m 120.45564,134.50909 v 3.87012 l 1.57901,0.90818 2.59041,1.49645 2.41495,-1.39324 c -0.21673,-0.8669 -0.51601,-1.57901 -0.88755,-2.17759 0.24769,0.0103 0.5057,0 0.75339,-0.0413 0.031,-2.16727 0.83594,-4.37582 2.19823,-5.94451 0.52634,-0.59858 2.00214,-1.49645 2.38399,-2.71425 -1.50676,1.1662 -3.37474,1.60997 -4.5203,2.93097 -1.09395,1.26941 -1.69253,2.96194 -1.75446,4.61319 -1.24876,-1.14555 -2.92065,-1.50677 -4.75767,-1.54804 z"
         id="path20"
         inkscape:connector-curvature="0"
         style="fill:#ffffff;fill-opacity:1;stroke-width:0.10320328" />
      <path
         d="m 126.82328,147.21341 v 0 c -0.0206,0.0516 -0.031,0.10321 -0.0516,0.15481 0.0206,-0.0516 0.031,-0.10321 0.0516,-0.15481 z"
         id="path24"
         inkscape:connector-curvature="0"
         style="fill:#ffffff;fill-opacity:1;stroke-width:0.10320328" />
      <path
         sodipodi:nodetypes="ccccccc"
         d="m 124.96563,146.14009 1.85765,1.07332 c 0.24769,-0.82563 0.44378,-1.64093 0.54698,-2.4356 0,0 0.0973,-0.89241 0.0929,-1.74413 -0.0206,-1.1146 -0.11353,-2.08471 -0.26833,-2.93098 l -2.22919,1.27972 z"
         id="path26"
         inkscape:connector-curvature="0"
         style="fill:#ffffff;fill-opacity:1;stroke-width:0.10320328" />
      <path
         d="m 120.10475,154.56148 -1.65125,0.94947 -1.84734,1.07332 c -0.0619,-0.19609 -0.12384,-0.39218 -0.18577,-0.58826 1.04236,3.3541 1.75446,5.77938 3.68436,5.77938 1.80606,0 2.60073,-2.13631 3.51923,-5.17049 z"
         id="path30"
         inkscape:connector-curvature="0"
         style="fill:#ffffff;fill-opacity:1;stroke-width:0.10320328" />
      <path
         d="m 113.09725,139.71053 c 0.0206,-0.11352 0.0516,-0.21673 0.0826,-0.33024 v 0 c -0.031,0.11351 -0.0619,0.21672 -0.0826,0.33024 z"
         id="path32"
         inkscape:connector-curvature="0"
         style="fill:#ffffff;fill-opacity:1;stroke-width:0.10320328" />
      <path
         d="m 123.83039,155.91345 c 0.17545,-0.58826 0.36121,-1.19716 0.5573,-1.83702 0.6089,-1.94022 1.52741,-4.05588 2.19823,-6.1406 l -1.98151,-1.14556 -4.15909,2.40465 v 4.75766 l 1.60997,0.92883 z"
         id="path34"
         inkscape:connector-curvature="0"
         style="fill:#ffffff;fill-opacity:1;stroke-width:0.10320328" />
      <path
         d="m 119.75386,134.50909 v 0 c 0,0 0.0103,0 0.0103,0 0,0 -0.0103,0 -0.0103,0 z"
         id="path36"
         inkscape:connector-curvature="0"
         style="fill:#ffffff;fill-opacity:1;stroke-width:0.10320328" />
      <path
         d="m 129.34145,131.58843 c -1.25908,1.44485 -1.99183,3.48827 -2.03311,5.49041 0.82563,-0.22703 1.64093,-0.74306 2.34272,-1.55837 1.29004,-1.48612 1.89894,-3.59146 1.73381,-5.49041 -0.73274,0.33026 -1.43452,0.84627 -2.04342,1.55837 z"
         id="path38"
         inkscape:connector-curvature="0"
         style="fill:#ffffff;fill-opacity:1;stroke-width:0.10320328" />
      <path
         d="m 108.82463,130.03006 c -0.16512,1.89895 0.44378,4.00429 1.73382,5.49041 0.70178,0.81531 1.51709,1.33134 2.34271,1.55837 -0.0413,-2.01246 -0.77402,-4.04556 -2.0331,-5.49041 -0.6089,-0.7121 -1.31068,-1.22811 -2.04343,-1.55837 z"
         id="path40"
         inkscape:connector-curvature="0"
         style="fill:#ffffff;fill-opacity:1;stroke-width:0.10320328" />
      <path
         d="m 111.10542,131.22722 c 1.36229,1.56869 2.15695,3.77724 2.19823,5.94451 0.25801,0.0413 0.5057,0.0516 0.75339,0.0413 -0.36121,0.59859 -0.6605,1.31068 -0.88755,2.17759 l 2.41496,1.39324 4.15909,-2.40463 v -3.87012 c -1.84734,0.0413 -3.50891,0.40249 -4.75767,1.54805 -0.0619,-1.65125 -0.6605,-3.35411 -1.75446,-4.6132 -1.14555,-1.32099 -3.01353,-1.75444 -4.5203,-2.93097 0.39217,1.2178 1.8783,2.10535 2.39431,2.71425 z"
         id="path42"
         inkscape:connector-curvature="0"
         style="fill:#ffffff;fill-opacity:1;stroke-width:0.10320328" />
      <g
         style="fill:#ffffff;fill-opacity:1"
         transform="matrix(-0.10320329,0,0,-0.10320329,170.14803,252.16083)"
         id="g1031">
        <path
           style="fill:#ffffff;fill-opacity:1"
           inkscape:connector-curvature="0"
           id="path44"
           d="m 544.6,874 h -7.9 c -9,0 -16.5,6.7 -17.8,15.4 h 17.2 c 0.7,-6.2 3.9,-11.7 8.5,-15.4 z" />
        <path
           style="fill:#ffffff;fill-opacity:1"
           inkscape:connector-curvature="0"
           id="path46"
           d="m 563.5,889.4 h 17.2 c 0.7,-6.2 3.8,-11.7 8.5,-15.4 h -7.9 c -9,0 -16.5,6.7 -17.8,15.4 z" />
        <path
           style="fill:#ffffff;fill-opacity:1"
           inkscape:connector-curvature="0"
           id="path48"
           d="M 566.9,874 H 559 c -9,0 -16.5,6.7 -17.8,15.4 h 17.2 c 0.7,-6.2 3.9,-11.7 8.5,-15.4 z" />
      </g>
      <g
         style="fill:#ffffff;fill-opacity:1"
         transform="matrix(-0.10320329,0,0,-0.10320329,202.81187,252.16083)"
         id="g1026">
        <path
           style="fill:#ffffff;fill-opacity:1"
           inkscape:connector-curvature="0"
           id="path50"
           d="m 749.6,874 h -7.9 c 4.6,3.7 7.8,9.2 8.5,15.4 h 17.2 C 766.1,880.7 758.6,874 749.6,874 Z" />
        <path
           style="fill:#ffffff;fill-opacity:1"
           inkscape:connector-curvature="0"
           id="path52"
           d="m 705.1,874 h -7.9 c 4.6,3.7 7.8,9.2 8.5,15.4 h 17.2 C 721.6,880.7 714.1,874 705.1,874 Z" />
        <path
           style="fill:#ffffff;fill-opacity:1"
           inkscape:connector-curvature="0"
           id="path54"
           d="m 727.3,874 h -7.9 c 4.6,3.7 7.8,9.2 8.5,15.4 h 17.2 C 743.9,880.7 736.4,874 727.3,874 Z" />
      </g>
      <g
         style="fill:#00539a;fill-opacity:1"
         transform="matrix(0.12168631,0,0,0.11296519,101.60023,126.23563)"
         id="g947">
        <rect
           style="fill:#012169;fill-opacity:1;stroke:none;stroke-width:1.00570691;stroke-miterlimit:10;stroke-dasharray:none;stroke-opacity:1"
           id="rect838"
           width="5.5055451"
           height="29.729946"
           x="145.71344"
           y="154.32698" />
        <rect
           style="fill:#012169;fill-opacity:1;stroke:none;stroke-width:1.00570691;stroke-miterlimit:10;stroke-dasharray:none;stroke-opacity:1"
           id="rect838-3"
           width="5.5055451"
           height="29.729946"
           x="153.21898"
           y="154.32698" />
        <rect
           style="fill:#012169;fill-opacity:1;stroke:none;stroke-width:1.00570691;stroke-miterlimit:10;stroke-dasharray:none;stroke-opacity:1"
           id="rect838-3-6"
           width="5.5055451"
           height="29.729946"
           x="214.68564"
           y="4.9536033"
           transform="rotate(36.02929)" />
        <rect
           style="fill:#012169;fill-opacity:1;stroke:none;stroke-width:1.00570691;stroke-miterlimit:10;stroke-dasharray:none;stroke-opacity:1"
           id="rect838-3-6-7"
           width="5.5055451"
           height="29.729946"
           x="-31.518333"
           y="184.02362"
           transform="matrix(-0.80871641,0.58819875,0.58819875,0.80871641,0,0)" />
        <rect
           style="fill:#012169;fill-opacity:1;stroke:none;stroke-width:0.91808057;stroke-miterlimit:10;stroke-dasharray:none;stroke-opacity:1"
           id="rect838-3-3"
           width="5.5055451"
           height="24.774956"
           x="222.27867"
           y="1.4431438"
           transform="rotate(36.784009)" />
        <rect
           style="fill:#012169;fill-opacity:1;stroke:none;stroke-width:0.91808057;stroke-miterlimit:10;stroke-dasharray:none;stroke-opacity:1"
           id="rect838-3-3-5"
           width="5.5055451"
           height="24.774956"
           x="-21.426546"
           y="183.95518"
           transform="matrix(-0.80089853,0.59880009,0.59880009,0.80089853,0,0)" />
      </g>
    </g>
  </g>
</svg>
