<?xml version="1.0" encoding="UTF-8" standalone="no"?>
<!-- Created with Inkscape (http://www.inkscape.org/) -->

<svg
   xmlns:dc="http://purl.org/dc/elements/1.1/"
   xmlns:cc="http://creativecommons.org/ns#"
   xmlns:rdf="http://www.w3.org/1999/02/22-rdf-syntax-ns#"
   xmlns:svg="http://www.w3.org/2000/svg"
   xmlns="http://www.w3.org/2000/svg"
   xmlns:sodipodi="http://sodipodi.sourceforge.net/DTD/sodipodi-0.dtd"
   xmlns:inkscape="http://www.inkscape.org/namespaces/inkscape"
   width="310.64554mm"
   height="49.551804mm"
   viewBox="0 0 310.64554 49.551804"
   version="1.1"
   id="svg8"
   inkscape:version="0.92.3 (2405546, 2018-03-11)"
   sodipodi:docname="AMADILLO_logo.svg">
  <defs
     id="defs2" />
  <sodipodi:namedview
     id="base"
     pagecolor="#ffffff"
     bordercolor="#666666"
     borderopacity="1.0"
     inkscape:pageopacity="0.0"
     inkscape:pageshadow="2"
     inkscape:zoom="0.98994949"
     inkscape:cx="560.16069"
     inkscape:cy="-53.18444"
     inkscape:document-units="mm"
     inkscape:current-layer="layer1"
     showgrid="false"
     fit-margin-top="0.5"
     fit-margin-left="0.5"
     fit-margin-right="0.5"
     fit-margin-bottom="0.5"
     inkscape:window-width="2233"
     inkscape:window-height="1603"
     inkscape:window-x="476"
     inkscape:window-y="315"
     inkscape:window-maximized="0" />
  <metadata
     id="metadata5">
    <rdf:RDF>
      <cc:Work
         rdf:about="">
        <dc:format>image/svg+xml</dc:format>
        <dc:type
           rdf:resource="http://purl.org/dc/dcmitype/StillImage" />
        <dc:title></dc:title>
      </cc:Work>
    </rdf:RDF>
  </metadata>
  <g
     inkscape:label="Layer 1"
     inkscape:groupmode="layer"
     id="layer1"
     transform="translate(55.591919,-120.30597)">
    <g
       id="g921"
       transform="matrix(0.56619218,0,0,0.56619218,62.759546,73.468725)">
      <path
         sodipodi:nodetypes="ccccccc"
         d="m 91.251931,128.79714 -4.7625,2.75167 c -0.635,-2.11667 -1.137708,-4.20687 -1.402291,-6.24417 0,0 -0.249389,-2.28787 -0.238125,-4.47145 0.05292,-2.8575 0.291041,-5.34459 0.687916,-7.51417 l 5.715,3.28083 z"
         id="path26-3"
         inkscape:connector-curvature="0"
         style="fill:#012169;fill-opacity:1;stroke-width:0.26458332" />
      <path
         d="m 115.43485,99.904645 0.26458,-1.164166 c 0.39688,-1.640417 0.9525,-3.227917 1.66688,-4.683125 -3.78355,-1.455209 -7.88459,-2.275417 -12.17084,-2.275417 h -3.06916 c -4.286254,0 -8.387295,0.79375 -12.170837,2.275417 0.714375,1.455208 1.296458,3.01625 1.666875,4.683125 l 0.264583,1.164166 1.084792,-0.529166 c 3.730625,-1.825625 7.884587,-2.037292 10.662707,-2.037292 2.80458,0 6.95854,0.211667 10.66271,2.037292 z"
         id="path2"
         inkscape:connector-curvature="0"
         style="fill:#012169;fill-opacity:1;stroke-width:0.26458332" />
      <path
         d="m 88.976515,92.311103 c 4.048125,-1.719791 8.519583,-2.672291 13.176245,-2.672291 h 3.06917 c 4.65667,0 9.10167,0.9525 13.17625,2.672291 0.50271,-0.79375 1.05833,-1.561041 1.66688,-2.248958 0.0794,-0.07937 0.13229,-0.15875 0.21166,-0.238125 -4.57729,-1.878542 -9.57791,-2.910417 -14.81666,-2.910417 h -3.54542 c -5.23875,0 -10.239375,1.031875 -14.816667,2.910417 0.07938,0.07937 0.132292,0.15875 0.211667,0.238125 0.608541,0.687917 1.164166,1.455208 1.666875,2.248958 z"
         id="path4"
         inkscape:connector-curvature="0"
         style="fill:#012169;fill-opacity:1;stroke-width:0.26458332" />
      <path
         d="m 91.43714,150.51944 c -0.79375,-2.40771 -1.74625,-4.92125 -2.751667,-7.56709 -2.69875,-7.09083 -5.476875,-14.39333 -5.476875,-21.03437 0,-5.50334 0.661458,-9.89542 1.984375,-13.46729 l 0.423333,-1.11125 -0.926041,-0.15875 v -0.0794 l -0.635,-0.21167 c -2.196042,-0.76729 -4.28625,-2.24895 -6.0325,-4.25979 -0.105834,-0.13229 -0.211667,-0.26458 -0.3175,-0.39687 -5.926667,6.13833 -9.577917,14.44625 -9.577917,23.60083 v -2.14312 c 0,-8.67834 3.280833,-16.61584 8.678333,-22.62188 -0.714375,-1.03187 -1.322916,-2.143123 -1.852083,-3.30729 -7.514167,7.14375 -12.22375,17.22437 -12.22375,28.36333 v 18.49438 c 0,10.60979 8.678333,19.26166 19.261667,19.26166 h 13.943541 c -1.084791,-2.43416 -2.010833,-5.45041 -3.069166,-8.81062 -0.449792,-1.50813 -0.926042,-2.98979 -1.42875,-4.55083 z"
         id="path6"
         inkscape:connector-curvature="0"
         style="fill:#012169;fill-opacity:1;stroke-width:0.26458332" />
      <path
         d="m 132.4211,97.735062 c -0.52917,1.164167 -1.13771,2.275418 -1.85209,3.307288 5.3975,6.0325 8.67834,13.97 8.67834,22.62188 v 2.14312 c 0,-9.12812 -3.65125,-17.4625 -9.57792,-23.60083 -0.10583,0.13229 -0.21167,0.26458 -0.3175,0.39687 -1.74625,2.01084 -3.81,3.46605 -6.0325,4.2598 l -0.635,0.21166 v 0.0794 l -0.92604,0.15875 0.42333,1.11125 c 1.34938,3.57188 1.98438,7.96396 1.98438,13.46729 0,6.27063 -2.61938,13.20271 -5.13292,19.87021 -1.03187,2.75167 -2.03729,5.37104 -2.80458,7.85813 -0.47625,1.50812 -0.89959,2.96333 -1.32292,4.36562 -1.13771,3.81 -2.16958,7.17021 -3.36021,9.86896 h 13.86417 c 10.60979,0 19.26167,-8.67833 19.26167,-19.26167 v -18.49438 c -0.0265,-11.1125 -4.73605,-21.21958 -12.25021,-28.363328 z"
         id="path8"
         inkscape:connector-curvature="0"
         style="fill:#012169;fill-opacity:1;stroke-width:0.26458332" />
      <path
         d="m 94.162348,153.82673 8.625412,-4.97417 v -12.19729 l -10.662704,-6.16479 -5.159375,2.96333 c 1.799167,5.63563 4.28625,11.37708 5.979584,16.56292 0.449791,1.29646 0.846666,2.56646 1.217083,3.81 z"
         id="path10"
         inkscape:connector-curvature="0"
         style="fill:#012169;fill-opacity:1;stroke-width:0.26458332" />
      <path
         d="m 85.510473,113.31902 v 0 c 0.05292,-0.29104 0.132292,-0.60854 0.185208,-0.89958 -0.07937,0.29104 -0.132291,0.58208 -0.185208,0.89958 z"
         id="path14"
         inkscape:connector-curvature="0"
         style="fill:#012169;fill-opacity:1;stroke-width:0.26458332" />
      <polygon
         transform="matrix(0.26458333,0,0,0.26458333,-66.492652,-65.433478)"
         points="602.8,734.1 643.2,757.4 683.5,734.1 683.5,688 656.2,672.3 643.2,664.7 602.8,688 "
         id="polygon16"
         style="fill:#012169;fill-opacity:1" />
      <path
         d="m 120.40901,133.13631 c -0.0265,0.0794 -0.0529,0.18521 -0.0794,0.26458 v 0 c 0.0265,-0.0794 0.0529,-0.15875 0.0794,-0.26458 z"
         id="path18"
         inkscape:connector-curvature="0"
         style="fill:#012169;fill-opacity:1;stroke-width:0.26458332" />
      <path
         d="m 104.58693,98.978604 v 9.921876 l 4.04813,2.32833 6.64104,3.83646 6.19125,-3.57188 c -0.55563,-2.2225 -1.32292,-4.04812 -2.27542,-5.5827 0.635,0.0265 1.29646,0 1.93146,-0.10584 0.0794,-5.55625 2.14312,-11.21833 5.63562,-15.239997 1.34938,-1.534583 5.13292,-3.836458 6.11188,-6.958541 -3.86292,2.989791 -8.65188,4.1275 -11.58875,7.514166 -2.80458,3.254376 -4.33917,7.593542 -4.49792,11.826872 -3.20146,-2.93687 -7.48771,-3.862913 -12.19729,-3.968746 z"
         id="path20"
         inkscape:connector-curvature="0"
         style="fill:#012169;fill-opacity:1;stroke-width:0.26458332" />
      <path
         d="m 120.91172,131.54881 v 0 c -0.0529,0.13229 -0.0794,0.26458 -0.13229,0.39688 0.0529,-0.1323 0.0794,-0.26459 0.13229,-0.39688 z"
         id="path24"
         inkscape:connector-curvature="0"
         style="fill:#012169;fill-opacity:1;stroke-width:0.26458332" />
      <path
         sodipodi:nodetypes="ccccccc"
         d="m 116.14922,128.79714 4.7625,2.75167 c 0.635,-2.11667 1.13771,-4.20687 1.40229,-6.24417 0,0 0.24939,-2.28787 0.23813,-4.47145 -0.0529,-2.8575 -0.29104,-5.34459 -0.68792,-7.51417 l -5.715,3.28083 z"
         id="path26"
         inkscape:connector-curvature="0"
         style="fill:#012169;fill-opacity:1;stroke-width:0.26458332" />
      <path
         d="m 103.68735,150.38714 -4.233335,2.43417 -4.736042,2.75167 c -0.15875,-0.50271 -0.3175,-1.00542 -0.47625,-1.50813 2.672292,8.59896 4.497917,14.81667 9.445627,14.81667 4.63021,0 6.6675,-5.47688 9.02229,-13.25563 z"
         id="path30"
         inkscape:connector-curvature="0"
         style="fill:#012169;fill-opacity:1;stroke-width:0.26458332" />
      <path
         d="m 85.72214,112.3136 c 0.05292,-0.29104 0.132291,-0.55562 0.211666,-0.84666 v 0 c -0.07937,0.29104 -0.15875,0.55562 -0.211666,0.84666 z"
         id="path32"
         inkscape:connector-curvature="0"
         style="fill:#012169;fill-opacity:1;stroke-width:0.26458332" />
      <path
         d="m 113.23881,153.85319 c 0.44979,-1.50813 0.92604,-3.06917 1.42875,-4.70959 1.56104,-4.97416 3.91583,-10.39812 5.63562,-15.74271 l -5.08,-2.93687 -10.66271,6.16479 v 12.19729 l 4.1275,2.38125 z"
         id="path34"
         inkscape:connector-curvature="0"
         style="fill:#012169;fill-opacity:1;stroke-width:0.26458332" />
      <path
         d="m 102.78776,98.978604 v 0 c 0,0 0.0265,0 0.0265,0 0,0 -0.0265,0 -0.0265,0 z"
         id="path36"
         inkscape:connector-curvature="0"
         style="fill:#012169;fill-opacity:1;stroke-width:0.26458332" />
      <path
         d="m 127.36756,91.490895 c -3.22792,3.704167 -5.10646,8.942915 -5.2123,14.075835 2.11667,-0.58209 4.20688,-1.905 6.00605,-3.99521 3.30729,-3.81 4.86833,-9.2075 4.445,-14.075833 -1.87855,0.846666 -3.67771,2.169583 -5.23875,3.995208 z"
         id="path38"
         inkscape:connector-curvature="0"
         style="fill:#003087;fill-opacity:1;stroke-width:0.26458332" />
      <path
         d="m 74.76839,87.495687 c -0.423334,4.868333 1.137708,10.265833 4.445,14.075833 1.799166,2.09021 3.889375,3.41312 6.006041,3.99521 C 85.113598,100.40735 83.235056,95.195062 80.00714,91.490895 78.446098,89.66527 76.646931,88.342353 74.76839,87.495687 Z"
         id="path40"
         inkscape:connector-curvature="0"
         style="fill:#003087;fill-opacity:1;stroke-width:0.26458332" />
      <path
         d="m 80.615681,90.564853 c 3.4925,4.021667 5.529792,9.683747 5.635625,15.239997 0.661459,0.10584 1.296459,0.13229 1.931459,0.10584 -0.926042,1.53458 -1.693334,3.3602 -2.275417,5.5827 l 6.19125,3.57188 10.662712,-6.16479 v -9.921876 c -4.736045,0.105833 -8.995837,1.031876 -12.197295,3.968746 -0.15875,-4.23333 -1.693334,-8.598955 -4.497917,-11.826872 -2.936875,-3.386666 -7.725833,-4.497916 -11.58875,-7.514166 1.005417,3.122083 4.815417,5.3975 6.138333,6.958541 z"
         id="path42"
         inkscape:connector-curvature="0"
         style="fill:#012169;fill-opacity:1;stroke-width:0.26458332" />
      <g
         style="fill:#003087;fill-opacity:1"
         transform="matrix(-0.26458333,0,0,-0.26458333,231.98381,400.6036)"
         id="g1031">
        <path
           style="fill:#003087;fill-opacity:1"
           inkscape:connector-curvature="0"
           id="path44"
           d="m 544.6,874 h -7.9 c -9,0 -16.5,6.7 -17.8,15.4 h 17.2 c 0.7,-6.2 3.9,-11.7 8.5,-15.4 z" />
        <path
           style="fill:#003087;fill-opacity:1"
           inkscape:connector-curvature="0"
           id="path46"
           d="m 563.5,889.4 h 17.2 c 0.7,-6.2 3.8,-11.7 8.5,-15.4 h -7.9 c -9,0 -16.5,6.7 -17.8,15.4 z" />
        <path
           style="fill:#003087;fill-opacity:1"
           inkscape:connector-curvature="0"
           id="path48"
           d="M 566.9,874 H 559 c -9,0 -16.5,6.7 -17.8,15.4 h 17.2 c 0.7,-6.2 3.9,-11.7 8.5,-15.4 z" />
      </g>
      <g
         style="fill:#003087;fill-opacity:1"
         transform="matrix(-0.26458333,0,0,-0.26458333,315.72443,400.6036)"
         id="g1026">
        <path
           style="fill:#003087;fill-opacity:1"
           inkscape:connector-curvature="0"
           id="path50"
           d="m 749.6,874 h -7.9 c 4.6,3.7 7.8,9.2 8.5,15.4 h 17.2 C 766.1,880.7 758.6,874 749.6,874 Z" />
        <path
           style="fill:#003087;fill-opacity:1"
           inkscape:connector-curvature="0"
           id="path52"
           d="m 705.1,874 h -7.9 c 4.6,3.7 7.8,9.2 8.5,15.4 h 17.2 C 721.6,880.7 714.1,874 705.1,874 Z" />
        <path
           style="fill:#003087;fill-opacity:1"
           inkscape:connector-curvature="0"
           id="path54"
           d="m 727.3,874 h -7.9 c 4.6,3.7 7.8,9.2 8.5,15.4 h 17.2 C 743.9,880.7 736.4,874 727.3,874 Z" />
      </g>
      <g
         style="fill:#ffffff;fill-opacity:1"
         transform="matrix(0.31196844,0,0,0.28961001,56.247112,77.767833)"
         id="g947">
        <rect
           style="fill:#ffffff;fill-opacity:1;stroke:none;stroke-width:1.00570691;stroke-miterlimit:10;stroke-dasharray:none;stroke-opacity:1"
           id="rect838"
           width="5.5055451"
           height="29.729946"
           x="145.71344"
           y="154.32698" />
        <rect
           style="fill:#ffffff;fill-opacity:1;stroke:none;stroke-width:1.00570691;stroke-miterlimit:10;stroke-dasharray:none;stroke-opacity:1"
           id="rect838-3"
           width="5.5055451"
           height="29.729946"
           x="153.21898"
           y="154.32698" />
        <rect
           style="fill:#ffffff;fill-opacity:1;stroke:none;stroke-width:1.00570691;stroke-miterlimit:10;stroke-dasharray:none;stroke-opacity:1"
           id="rect838-3-6"
           width="5.5055451"
           height="29.729946"
           x="214.68564"
           y="4.9536033"
           transform="rotate(36.02929)" />
        <rect
           style="fill:#ffffff;fill-opacity:1;stroke:none;stroke-width:1.00570691;stroke-miterlimit:10;stroke-dasharray:none;stroke-opacity:1"
           id="rect838-3-6-7"
           width="5.5055451"
           height="29.729946"
           x="-31.518333"
           y="184.02362"
           transform="matrix(-0.80871641,0.58819875,0.58819875,0.80871641,0,0)" />
        <rect
           style="fill:#ffffff;fill-opacity:1;stroke:none;stroke-width:0.91808057;stroke-miterlimit:10;stroke-dasharray:none;stroke-opacity:1"
           id="rect838-3-3"
           width="5.5055451"
           height="24.774956"
           x="222.27867"
           y="1.4431438"
           transform="rotate(36.784009)" />
        <rect
           style="fill:#ffffff;fill-opacity:1;stroke:none;stroke-width:0.91808057;stroke-miterlimit:10;stroke-dasharray:none;stroke-opacity:1"
           id="rect838-3-3-5"
           width="5.5055451"
           height="24.774956"
           x="-21.426546"
           y="183.95518"
           transform="matrix(-0.80089853,0.59880009,0.59880009,0.80089853,0,0)" />
      </g>
    </g>
    <flowRoot
       xml:space="preserve"
       id="flowRoot923"
       style="font-style:normal;font-weight:normal;font-size:40px;line-height:1.25;font-family:sans-serif;letter-spacing:0px;word-spacing:0px;fill:#000000;fill-opacity:1;stroke:none"
       transform="scale(0.26458333)"><flowRegion
         id="flowRegion925"><rect
           id="rect927"
           width="348.50262"
           height="501.03568"
           x="-215.16249"
           y="266.92047" /></flowRegion><flowPara
         id="flowPara929"></flowPara></flowRoot>    <flowRoot
       xml:space="preserve"
       id="flowRoot931"
       style="font-style:normal;font-weight:normal;font-size:40px;line-height:1.25;font-family:sans-serif;letter-spacing:0px;word-spacing:0px;fill:#000000;fill-opacity:1;stroke:none"
       transform="matrix(1.2989637,0,0,1.2989637,141.3256,-433.27613)"><flowRegion
         id="flowRegion933"><rect
           id="rect935"
           width="241.55855"
           height="44.999737"
           x="-151.52289"
           y="424.50427" /></flowRegion><flowPara
         id="flowPara937">ARMA   iLLO</flowPara></flowRoot>  </g>
</svg>
